<?xml version="1.0" encoding="UTF-8"?>
<!DOCTYPE svg PUBLIC "-//W3C//DTD SVG 1.1//EN" "http://www.w3.org/Graphics/SVG/1.1/DTD/svg11.dtd">
<svg xmlns="http://www.w3.org/2000/svg" version="1.1" width="310px" height="163px" style="shape-rendering:geometricPrecision; text-rendering:geometricPrecision; image-rendering:optimizeQuality; fill-rule:evenodd; clip-rule:evenodd" xmlns:xlink="http://www.w3.org/1999/xlink">
<g><path style="opacity:0.639" fill="#92c5df" d="M 190.5,59.5 C 190.38,58.4138 189.713,57.7472 188.5,57.5C 186.927,57.7517 185.594,58.4183 184.5,59.5C 185.594,58.4183 186.927,57.7517 188.5,57.5C 189.713,57.7472 190.38,58.4138 190.5,59.5 Z"/></g>
<g><path style="opacity:0.784" fill="#86c0d9" d="M 220.5,57.5 C 217.15,57.335 213.817,57.5017 210.5,58C 207.771,58.5661 205.771,60.0661 204.5,62.5C 204.5,63.1667 204.167,63.5 203.5,63.5C 203.799,60.3579 205.466,58.1912 208.5,57C 212.689,56.1881 216.689,56.3547 220.5,57.5 Z"/></g>
<g><path style="opacity:0.545" fill="#aed7ec" d="M 243.5,57.5 C 241.167,57.5 238.833,57.5 236.5,57.5C 238.656,55.0401 240.989,55.0401 243.5,57.5 Z"/></g>
<g><path style="opacity:0.576" fill="#a8d3eb" d="M 262.5,57.5 C 260.167,57.5 257.833,57.5 255.5,57.5C 257.764,55.1093 260.098,55.1093 262.5,57.5 Z"/></g>
<g><path style="opacity:1" fill="#a6a01f" d="M 62.5,58.5 C 75.3226,57.5045 88.3226,57.1712 101.5,57.5C 101.5,64.8333 101.5,72.1667 101.5,79.5C 100.508,79.6716 99.8417,79.3382 99.5,78.5C 100.491,72.021 100.824,65.3543 100.5,58.5C 93.1667,58.5 85.8333,58.5 78.5,58.5C 76.8333,58.5 75.1667,58.5 73.5,58.5C 71.5,58.5 69.5,58.5 67.5,58.5C 66.1667,58.5 64.8333,58.5 63.5,58.5C 63.1667,58.5 62.8333,58.5 62.5,58.5 Z"/></g>
<g><path style="opacity:1" fill="#4197ca" d="M 220.5,57.5 C 220.833,57.5 221.167,57.5 221.5,57.5C 221.843,59.4832 221.176,60.8166 219.5,61.5C 215.838,61.0339 212.505,61.7006 209.5,63.5C 209.719,62.325 209.386,61.325 208.5,60.5C 207.378,61.6302 206.044,62.2969 204.5,62.5C 205.771,60.0661 207.771,58.5661 210.5,58C 213.817,57.5017 217.15,57.335 220.5,57.5 Z"/></g>
<g><path style="opacity:1" fill="#f3ed24" d="M 78.5,59.5 C 78.5,59.1667 78.5,58.8333 78.5,58.5C 85.8333,58.5 93.1667,58.5 100.5,58.5C 100.824,65.3543 100.491,72.021 99.5,78.5C 97.8333,76.1667 95.8333,74.1667 93.5,72.5C 93.5,72.1667 93.5,71.8333 93.5,71.5C 95.258,71.8769 96.9246,72.5435 98.5,73.5C 99.6599,69.5411 99.8265,65.5411 99,61.5C 98.1841,60.1772 97.0174,59.5106 95.5,59.5C 89.8333,59.5 84.1667,59.5 78.5,59.5 Z"/></g>
<g><path style="opacity:1" fill="#4d9fcd" d="M 159.5,57.5 C 159.5,58.5 159.5,59.5 159.5,60.5C 157.801,60.3796 156.135,60.0463 154.5,59.5C 153.287,59.7472 152.62,60.4138 152.5,61.5C 152.771,63.4305 153.771,64.7638 155.5,65.5C 154.167,65.5 152.833,65.5 151.5,65.5C 151.5,64.1667 151.5,62.8333 151.5,61.5C 150.5,61.5 149.5,61.5 148.5,61.5C 148.722,64.5042 149.722,67.1708 151.5,69.5C 146.527,67.1877 145.36,63.521 148,58.5C 151.784,56.3547 155.618,56.0213 159.5,57.5 Z"/></g>
<g><path style="opacity:1" fill="#4ea1d1" d="M 190.5,59.5 C 188.824,62.1731 187.157,64.8397 185.5,67.5C 186.187,69.1772 186.854,70.8439 187.5,72.5C 186.5,71.8333 185.5,71.1667 184.5,70.5C 184.25,68.0586 183.25,66.0586 181.5,64.5C 181.5,64.1667 181.5,63.8333 181.5,63.5C 181.738,61.5956 182.738,60.2623 184.5,59.5C 185.594,58.4183 186.927,57.7517 188.5,57.5C 189.713,57.7472 190.38,58.4138 190.5,59.5 Z"/></g>
<g><path style="opacity:1" fill="#f8ea0a" d="M 78.5,59.5 C 84.1667,59.5 89.8333,59.5 95.5,59.5C 92.3586,60.3213 89.0252,60.8213 85.5,61C 90.2931,61.0238 94.6264,62.3571 98.5,65C 97.5683,67.6512 96.2349,67.9845 94.5,66C 90.5138,65.5012 86.5138,65.3345 82.5,65.5C 81.0222,65.762 79.6888,65.4287 78.5,64.5C 79.5353,62.8716 79.5353,61.205 78.5,59.5 Z"/></g>
<g><path style="opacity:1" fill="#1289c8" d="M 133.5,60.5 C 133.5,62.1667 133.5,63.8333 133.5,65.5C 132.167,65.5 130.833,65.5 129.5,65.5C 129.843,63.5168 129.176,62.1834 127.5,61.5C 126.081,60.5489 124.415,60.2155 122.5,60.5C 122.205,62.7354 122.539,64.7354 123.5,66.5C 123.5,66.8333 123.5,67.1667 123.5,67.5C 123.5,68.1667 123.5,68.8333 123.5,69.5C 122.523,72.2869 122.19,75.2869 122.5,78.5C 121.5,78.5 120.5,78.5 119.5,78.5C 119.5,71.5 119.5,64.5 119.5,57.5C 124.6,56.9098 129.267,57.9098 133.5,60.5 Z"/></g>
<g><path style="opacity:0.573" fill="#82bdd6" d="M 159.5,57.5 C 161.145,62.7289 159.645,63.7289 155,60.5C 154.329,61.2524 153.496,61.5858 152.5,61.5C 152.62,60.4138 153.287,59.7472 154.5,59.5C 156.135,60.0463 157.801,60.3796 159.5,60.5C 159.5,59.5 159.5,58.5 159.5,57.5 Z"/></g>
<g><path style="opacity:0.682" fill="#85b8d0" d="M 221.5,57.5 C 222.451,58.9187 222.784,60.5853 222.5,62.5C 221.209,62.7373 220.209,62.404 219.5,61.5C 221.176,60.8166 221.843,59.4832 221.5,57.5 Z"/></g>
<g><path style="opacity:1" fill="#f9ef55" d="M 73.5,58.5 C 75.1667,58.5 76.8333,58.5 78.5,58.5C 78.5,58.8333 78.5,59.1667 78.5,59.5C 77.5041,59.4142 76.6708,59.7476 76,60.5C 75.5017,63.8168 75.335,67.1501 75.5,70.5C 77.5,70.5 79.5,70.5 81.5,70.5C 81.5,70.8333 81.5,71.1667 81.5,71.5C 78.5525,71.7771 75.7191,71.4438 73,70.5C 72.4357,67.8453 71.9357,65.1786 71.5,62.5C 71.8029,60.8857 72.4695,59.5523 73.5,58.5 Z"/></g>
<g><path style="opacity:0.871" fill="#82bfde" d="M 133.5,60.5 C 129.267,57.9098 124.6,56.9098 119.5,57.5C 119.5,64.5 119.5,71.5 119.5,78.5C 120.5,78.5 121.5,78.5 122.5,78.5C 122.19,75.2869 122.523,72.2869 123.5,69.5C 125.179,69.2852 126.179,69.9519 126.5,71.5C 125.5,71.5 124.5,71.5 123.5,71.5C 123.664,74.1873 123.497,76.854 123,79.5C 121.333,80.8333 119.667,80.8333 118,79.5C 117.333,72.1667 117.333,64.8333 118,57.5C 122.84,56.1497 127.673,56.3163 132.5,58C 133.252,58.6708 133.586,59.5041 133.5,60.5 Z"/></g>
<g><path style="opacity:0.055" fill="#cafeff" d="M 179.5,57.5 C 180.167,59.5 180.833,61.5 181.5,63.5C 181.5,63.8333 181.5,64.1667 181.5,64.5C 180.883,64.6107 180.383,64.944 180,65.5C 179.503,62.854 179.336,60.1873 179.5,57.5 Z"/></g>
<g><path style="opacity:1" fill="#dfde60" d="M 67.5,58.5 C 69.5,58.5 71.5,58.5 73.5,58.5C 72.4695,59.5523 71.8029,60.8857 71.5,62.5C 71.9357,65.1786 72.4357,67.8453 73,70.5C 75.7191,71.4438 78.5525,71.7771 81.5,71.5C 85.5,71.5 89.5,71.5 93.5,71.5C 93.5,71.8333 93.5,72.1667 93.5,72.5C 88.1667,72.5 82.8333,72.5 77.5,72.5C 74.1667,72.5 70.8333,72.5 67.5,72.5C 66.8333,72.5 66.1667,72.5 65.5,72.5C 65.5,72.1667 65.5,71.8333 65.5,71.5C 66.8734,71.6567 68.2068,71.49 69.5,71C 67.7806,67.0431 67.114,62.8764 67.5,58.5 Z"/></g>
<g><path style="opacity:0.396" fill="#88d4f5" d="M 127.5,61.5 C 126.167,61.5 124.833,61.5 123.5,61.5C 123.5,63.1667 123.5,64.8333 123.5,66.5C 122.539,64.7354 122.205,62.7354 122.5,60.5C 124.415,60.2155 126.081,60.5489 127.5,61.5 Z"/></g>
<g><path style="opacity:1" fill="#148ac8" d="M 243.5,59.5 C 243.672,60.4916 243.338,61.1583 242.5,61.5C 240.55,66.7351 239.883,72.4018 240.5,78.5C 239.5,78.5 238.5,78.5 237.5,78.5C 237.334,72.1579 237.5,65.8246 238,59.5C 239.943,58.193 241.777,58.193 243.5,59.5 Z"/></g>
<g><path style="opacity:1" fill="#4b9dca" d="M 255.5,57.5 C 257.833,57.5 260.167,57.5 262.5,57.5C 263.655,64.6549 263.822,71.9882 263,79.5C 261.384,80.8009 259.884,80.8009 258.5,79.5C 258.5,74.5 258.5,69.5 258.5,64.5C 261.504,60.3704 260.171,58.7037 254.5,59.5C 254.328,58.5084 254.662,57.8417 255.5,57.5 Z"/></g>
<g><path style="opacity:1" fill="#fbe708" d="M 95.5,59.5 C 97.0174,59.5106 98.1841,60.1772 99,61.5C 99.8265,65.5411 99.6599,69.5411 98.5,73.5C 96.9246,72.5435 95.258,71.8769 93.5,71.5C 92.7659,70.2921 92.4326,68.9587 92.5,67.5C 89.0613,67.2529 85.728,67.5863 82.5,68.5C 81.1667,67.5 81.1667,66.5 82.5,65.5C 86.5138,65.3345 90.5138,65.5012 94.5,66C 96.2349,67.9845 97.5683,67.6512 98.5,65C 94.6264,62.3571 90.2931,61.0238 85.5,61C 89.0252,60.8213 92.3586,60.3213 95.5,59.5 Z"/></g>
<g><path style="opacity:1" fill="#77bbde" d="M 133.5,60.5 C 135.184,63.718 134.517,66.3846 131.5,68.5C 131.53,67.5028 131.03,66.8361 130,66.5C 127.901,67.2865 125.734,67.6199 123.5,67.5C 123.5,67.1667 123.5,66.8333 123.5,66.5C 125.117,65.962 126.784,65.6287 128.5,65.5C 128.567,64.0413 128.234,62.7079 127.5,61.5C 129.176,62.1834 129.843,63.5168 129.5,65.5C 130.833,65.5 132.167,65.5 133.5,65.5C 133.5,63.8333 133.5,62.1667 133.5,60.5 Z"/></g>
<g><path style="opacity:1" fill="#2490c6" d="M 243.5,59.5 C 244.325,61.8102 245.658,63.8102 247.5,65.5C 247.025,68.3126 248.025,70.3126 250.5,71.5C 249.811,72.7736 248.977,72.7736 248,71.5C 247.283,72.0442 246.783,72.7109 246.5,73.5C 243.803,70.1008 242.47,66.1008 242.5,61.5C 243.338,61.1583 243.672,60.4916 243.5,59.5 Z"/></g>
<g><path style="opacity:1" fill="#edecdd" d="M 61.5,58.5 C 59.2896,63.2474 58.9563,68.2474 60.5,73.5C 61.1835,73.8627 61.8501,74.1961 62.5,74.5C 61.5161,76.4799 60.1827,78.1466 58.5,79.5C 57.5088,72.6866 57.1755,65.6866 57.5,58.5C 58.8333,58.5 60.1667,58.5 61.5,58.5 Z"/></g>
<g><path style="opacity:1" fill="#fcface" d="M 61.5,58.5 C 61.8333,58.5 62.1667,58.5 62.5,58.5C 62.8333,58.5 63.1667,58.5 63.5,58.5C 62.564,62.7352 62.2307,67.0685 62.5,71.5C 63.5,71.5 64.5,71.5 65.5,71.5C 65.5,71.8333 65.5,72.1667 65.5,72.5C 64.8333,72.5 64.5,72.8333 64.5,73.5C 63.8333,73.8333 63.1667,74.1667 62.5,74.5C 61.8501,74.1961 61.1835,73.8627 60.5,73.5C 58.9563,68.2474 59.2896,63.2474 61.5,58.5 Z"/></g>
<g><path style="opacity:1" fill="#128ac9" d="M 155.5,65.5 C 155.859,67.4846 156.692,68.1513 158,67.5C 158.717,68.0442 159.217,68.7109 159.5,69.5C 159.869,71.9935 159.203,72.6602 157.5,71.5C 156.082,69.6921 154.082,69.0254 151.5,69.5C 149.722,67.1708 148.722,64.5042 148.5,61.5C 149.5,61.5 150.5,61.5 151.5,61.5C 151.5,62.8333 151.5,64.1667 151.5,65.5C 152.833,65.5 154.167,65.5 155.5,65.5 Z"/></g>
<g><path style="opacity:0.849" fill="#7ab9d8" d="M 236.5,57.5 C 238.833,57.5 241.167,57.5 243.5,57.5C 245.771,59.6123 247.104,62.279 247.5,65.5C 245.658,63.8102 244.325,61.8102 243.5,59.5C 241.777,58.193 239.943,58.193 238,59.5C 237.5,65.8246 237.334,72.1579 237.5,78.5C 238.5,78.5 239.5,78.5 240.5,78.5C 240.5,78.8333 240.5,79.1667 240.5,79.5C 239.116,80.8009 237.616,80.8009 236,79.5C 235.178,71.9882 235.345,64.6549 236.5,57.5 Z"/></g>
<g><path style="opacity:1" fill="#fcf69f" d="M 63.5,58.5 C 64.8333,58.5 66.1667,58.5 67.5,58.5C 67.114,62.8764 67.7806,67.0431 69.5,71C 68.2068,71.49 66.8734,71.6567 65.5,71.5C 64.5,71.5 63.5,71.5 62.5,71.5C 62.2307,67.0685 62.564,62.7352 63.5,58.5 Z"/></g>
<g><path style="opacity:1" fill="#fced2d" d="M 78.5,59.5 C 79.5353,61.205 79.5353,62.8716 78.5,64.5C 79.6888,65.4287 81.0222,65.762 82.5,65.5C 81.1667,66.5 81.1667,67.5 82.5,68.5C 82.1667,69.1667 81.8333,69.8333 81.5,70.5C 79.5,70.5 77.5,70.5 75.5,70.5C 75.335,67.1501 75.5017,63.8168 76,60.5C 76.6708,59.7476 77.5041,59.4142 78.5,59.5 Z"/></g>
<g><path style="opacity:1" fill="#f5eb11" d="M 93.5,71.5 C 89.5,71.5 85.5,71.5 81.5,71.5C 81.5,71.1667 81.5,70.8333 81.5,70.5C 81.8333,69.8333 82.1667,69.1667 82.5,68.5C 85.728,67.5863 89.0613,67.2529 92.5,67.5C 92.4326,68.9587 92.7659,70.2921 93.5,71.5 Z"/></g>
<g><path style="opacity:0.749" fill="#85c5e7" d="M 155.5,65.5 C 158.732,65.7717 160.732,67.4384 161.5,70.5C 160.833,70.1667 160.167,69.8333 159.5,69.5C 159.217,68.7109 158.717,68.0442 158,67.5C 156.692,68.1513 155.859,67.4846 155.5,65.5 Z"/></g>
<g><path style="opacity:1" fill="#0d88c8" d="M 178.5,57.5 C 178.307,61.5662 178.64,65.5662 179.5,69.5C 178.523,72.2869 178.19,75.2869 178.5,78.5C 177.5,78.5 176.5,78.5 175.5,78.5C 175.5,71.5 175.5,64.5 175.5,57.5C 176.5,57.5 177.5,57.5 178.5,57.5 Z"/></g>
<g><path style="opacity:1" fill="#389bd2" d="M 178.5,57.5 C 178.833,57.5 179.167,57.5 179.5,57.5C 179.336,60.1873 179.503,62.854 180,65.5C 180.383,64.944 180.883,64.6107 181.5,64.5C 183.25,66.0586 184.25,68.0586 184.5,70.5C 183.624,70.3691 182.957,70.7025 182.5,71.5C 183.246,72.7362 183.579,74.0695 183.5,75.5C 182.599,74.7095 181.932,73.7095 181.5,72.5C 181.573,70.9731 180.906,69.9731 179.5,69.5C 178.64,65.5662 178.307,61.5662 178.5,57.5 Z"/></g>
<g><path style="opacity:0.392" fill="#a1d7f1" d="M 203.5,63.5 C 203.191,67.7047 203.857,71.7047 205.5,75.5C 205.5,75.8333 205.5,76.1667 205.5,76.5C 204.21,75.9423 203.377,74.9423 203,73.5C 202.192,69.9733 202.359,66.6399 203.5,63.5 Z"/></g>
<g><path style="opacity:0.427" fill="#98d1e7" d="M 208.5,65.5 C 208.448,67.9029 208.781,70.2362 209.5,72.5C 208.833,72.1667 208.167,71.8333 207.5,71.5C 207.205,69.2646 207.539,67.2646 208.5,65.5 Z"/></g>
<g><path style="opacity:1" fill="#1d8cc8" d="M 219.5,79.5 C 214.449,79.9579 209.783,78.9579 205.5,76.5C 205.5,76.1667 205.5,75.8333 205.5,75.5C 206.675,75.719 207.675,75.3857 208.5,74.5C 207.873,73.5832 207.539,72.5832 207.5,71.5C 208.167,71.8333 208.833,72.1667 209.5,72.5C 209.414,73.4959 209.748,74.3292 210.5,75C 212.81,75.4966 215.143,75.6633 217.5,75.5C 217.5,73.8333 217.5,72.1667 217.5,70.5C 216.282,69.8386 214.949,69.1719 213.5,68.5C 216.086,67.52 218.753,67.1866 221.5,67.5C 221.984,71.8274 221.318,75.8274 219.5,79.5 Z"/></g>
<g><path style="opacity:0.157" fill="#addff3" d="M 254.5,59.5 C 253.758,63.7257 252.425,67.7257 250.5,71.5C 248.025,70.3126 247.025,68.3126 247.5,65.5C 248.158,66.3984 248.824,67.3984 249.5,68.5C 251.367,65.5209 253.033,62.5209 254.5,59.5 Z"/></g>
<g><path style="opacity:1" fill="#62b4dc" d="M 151.5,69.5 C 154.082,69.0254 156.082,69.6921 157.5,71.5C 157.207,75.8292 155.207,77.1626 151.5,75.5C 153.681,75.7163 155.347,74.883 156.5,73C 154.767,71.8111 153.1,70.6444 151.5,69.5 Z"/></g>
<g><path style="opacity:0.643" fill="#91cbe4" d="M 179.5,57.5 C 179.167,57.5 178.833,57.5 178.5,57.5C 177.5,57.5 176.5,57.5 175.5,57.5C 175.5,64.5 175.5,71.5 175.5,78.5C 176.5,78.5 177.5,78.5 178.5,78.5C 178.19,75.2869 178.523,72.2869 179.5,69.5C 179.5,72.5 179.5,75.5 179.5,78.5C 179.209,79.6491 178.376,80.3158 177,80.5C 176.167,80.1667 175.333,79.8333 174.5,79.5C 173.368,72.2167 173.201,64.8834 174,57.5C 175.855,55.0166 177.689,55.0166 179.5,57.5 Z"/></g>
<g><path style="opacity:1" fill="#1c8cca" d="M 209.5,63.5 C 209.672,64.4916 209.338,65.1583 208.5,65.5C 207.539,67.2646 207.205,69.2646 207.5,71.5C 207.539,72.5832 207.873,73.5832 208.5,74.5C 207.675,75.3857 206.675,75.719 205.5,75.5C 203.857,71.7047 203.191,67.7047 203.5,63.5C 204.167,63.5 204.5,63.1667 204.5,62.5C 206.044,62.2969 207.378,61.6302 208.5,60.5C 209.386,61.325 209.719,62.325 209.5,63.5 Z"/></g>
<g><path style="opacity:0.207" fill="#a6e9fe" d="M 258.5,64.5 C 258.5,69.5 258.5,74.5 258.5,79.5C 257.833,75.1667 257.167,70.8333 256.5,66.5C 256.312,64.8967 256.812,63.5634 258,62.5C 258.464,63.0944 258.631,63.7611 258.5,64.5 Z"/></g>
<g><path style="opacity:1" fill="#26510e" d="M 77.5,73.5 C 77.5,73.1667 77.5,72.8333 77.5,72.5C 82.8333,72.5 88.1667,72.5 93.5,72.5C 95.8333,74.1667 97.8333,76.1667 99.5,78.5C 99.8417,79.3382 100.508,79.6716 101.5,79.5C 100.167,80.8333 98.8333,80.8333 97.5,79.5C 96.791,78.596 95.791,78.2627 94.5,78.5C 95.5291,76.8472 95.0291,75.5139 93,74.5C 90.2305,73.6521 87.3971,73.3187 84.5,73.5C 82.1667,73.5 79.8333,73.5 77.5,73.5 Z"/></g>
<g><path style="opacity:1" fill="#3f99cc" d="M 131.5,68.5 C 132.883,70.9779 133.883,73.6446 134.5,76.5C 134.5,77.5 134.5,78.5 134.5,79.5C 133.167,79.5 131.833,79.5 130.5,79.5C 128.659,77.1515 127.326,74.4848 126.5,71.5C 126.179,69.9519 125.179,69.2852 123.5,69.5C 123.5,68.8333 123.5,68.1667 123.5,67.5C 125.734,67.6199 127.901,67.2865 130,66.5C 131.03,66.8361 131.53,67.5028 131.5,68.5 Z"/></g>
<g><path style="opacity:1" fill="#3b97cf" d="M 184.5,70.5 C 185.5,71.1667 186.5,71.8333 187.5,72.5C 188.906,72.9731 189.573,73.9731 189.5,75.5C 191.186,78.5367 190.186,79.87 186.5,79.5C 185.026,78.5637 184.026,77.2303 183.5,75.5C 183.579,74.0695 183.246,72.7362 182.5,71.5C 182.957,70.7025 183.624,70.3691 184.5,70.5 Z"/></g>
<g><path style="opacity:1" fill="#1c8dc9" d="M 254.5,59.5 C 260.171,58.7037 261.504,60.3704 258.5,64.5C 258.631,63.7611 258.464,63.0944 258,62.5C 256.812,63.5634 256.312,64.8967 256.5,66.5C 256.737,67.791 256.404,68.791 255.5,69.5C 253.871,71.8577 252.705,74.5243 252,77.5C 250.644,78.3802 249.144,78.7135 247.5,78.5C 247.634,76.7085 247.301,75.0418 246.5,73.5C 246.783,72.7109 247.283,72.0442 248,71.5C 248.977,72.7736 249.811,72.7736 250.5,71.5C 252.425,67.7257 253.758,63.7257 254.5,59.5 Z"/></g>
<g><path style="opacity:1" fill="#107736" d="M 77.5,73.5 C 79.8333,73.5 82.1667,73.5 84.5,73.5C 85.8333,74.8333 85.8333,76.1667 84.5,77.5C 81.5448,78.1587 78.5448,78.4921 75.5,78.5C 76.5025,76.9891 77.1692,75.3224 77.5,73.5 Z"/></g>
<g><path style="opacity:0.035" fill="#d1f8fe" d="M 213.5,70.5 C 214.833,70.5 216.167,70.5 217.5,70.5C 217.5,72.1667 217.5,73.8333 217.5,75.5C 215.143,75.6633 212.81,75.4966 210.5,75C 209.748,74.3292 209.414,73.4959 209.5,72.5C 211.479,74.1675 213.812,74.8342 216.5,74.5C 216.5,73.5 216.5,72.5 216.5,71.5C 215.209,71.7373 214.209,71.404 213.5,70.5 Z"/></g>
<g><path style="opacity:0.753" fill="#83bedb" d="M 219.5,79.5 C 221.318,75.8274 221.984,71.8274 221.5,67.5C 218.753,67.1866 216.086,67.52 213.5,68.5C 214.949,69.1719 216.282,69.8386 217.5,70.5C 216.167,70.5 214.833,70.5 213.5,70.5C 212.218,69.2918 212.218,67.9584 213.5,66.5C 216.103,65.4383 218.77,65.2716 221.5,66C 222.467,70.4014 222.8,74.9014 222.5,79.5C 221.5,79.5 220.5,79.5 219.5,79.5 Z"/></g>
<g><path style="opacity:1" fill="#619a77" d="M 67.5,72.5 C 70.8333,72.5 74.1667,72.5 77.5,72.5C 77.5,72.8333 77.5,73.1667 77.5,73.5C 77.1692,75.3224 76.5025,76.9891 75.5,78.5C 74.5084,78.3284 73.8417,78.6618 73.5,79.5C 72.1667,79.5 70.8333,79.5 69.5,79.5C 67.8516,77.5441 67.1849,75.2108 67.5,72.5 Z"/></g>
<g><path style="opacity:1" fill="#096434" d="M 84.5,73.5 C 87.3971,73.3187 90.2305,73.6521 93,74.5C 95.0291,75.5139 95.5291,76.8472 94.5,78.5C 91.0977,78.6576 87.7644,78.3242 84.5,77.5C 85.8333,76.1667 85.8333,74.8333 84.5,73.5 Z"/></g>
<g><path style="opacity:1" fill="#73b5cf" d="M 151.5,75.5 C 150.325,75.281 149.325,75.6143 148.5,76.5C 149.127,77.4168 149.461,78.4168 149.5,79.5C 148.504,79.5858 147.671,79.2524 147,78.5C 145.996,73.1549 147.496,72.1549 151.5,75.5 Z"/></g>
<g><path style="opacity:1" fill="#3593c8" d="M 159.5,69.5 C 160.167,69.8333 160.833,70.1667 161.5,70.5C 162.833,72.1667 162.833,73.8333 161.5,75.5C 160.094,75.9731 159.427,76.9731 159.5,78.5C 156.193,79.0508 152.86,79.3841 149.5,79.5C 149.461,78.4168 149.127,77.4168 148.5,76.5C 149.325,75.6143 150.325,75.281 151.5,75.5C 155.207,77.1626 157.207,75.8292 157.5,71.5C 159.203,72.6602 159.869,71.9935 159.5,69.5 Z"/></g>
<g><path style="opacity:0.063" fill="#ccfcfe" d="M 179.5,69.5 C 180.906,69.9731 181.573,70.9731 181.5,72.5C 180.833,74.5 180.167,76.5 179.5,78.5C 179.5,75.5 179.5,72.5 179.5,69.5 Z"/></g>
<g><path style="opacity:1" fill="#86c5e5" d="M 242.5,61.5 C 242.47,66.1008 243.803,70.1008 246.5,73.5C 247.301,75.0418 247.634,76.7085 247.5,78.5C 249.144,78.7135 250.644,78.3802 252,77.5C 252.705,74.5243 253.871,71.8577 255.5,69.5C 254.978,72.5682 254.145,75.5682 253,78.5C 251.267,80.6015 249.267,80.9348 247,79.5C 244.924,75.2626 243.257,70.9293 242,66.5C 241.825,71.0195 241.325,75.3528 240.5,79.5C 240.5,79.1667 240.5,78.8333 240.5,78.5C 239.883,72.4018 240.55,66.7351 242.5,61.5 Z"/></g>
<g><path style="opacity:0.004" fill="#fefffe" d="M 242.5,74.5 C 243.833,75.1667 243.833,75.1667 242.5,74.5 Z"/></g>
<g><path style="opacity:1" fill="#99b7a6" d="M 65.5,72.5 C 66.1667,72.5 66.8333,72.5 67.5,72.5C 67.1849,75.2108 67.8516,77.5441 69.5,79.5C 69.1583,80.3382 68.4916,80.6716 67.5,80.5C 63.615,79.5306 62.615,77.1972 64.5,73.5C 64.5,72.8333 64.8333,72.5 65.5,72.5 Z"/></g>
<g><path style="opacity:0.02" fill="#b0e3f2" d="M 161.5,75.5 C 161.573,77.0269 160.906,78.0269 159.5,78.5C 159.427,76.9731 160.094,75.9731 161.5,75.5 Z"/></g>
<g><path style="opacity:1" fill="#256645" d="M 84.5,77.5 C 87.7644,78.3242 91.0977,78.6576 94.5,78.5C 95.791,78.2627 96.791,78.596 97.5,79.5C 92.0084,80.4007 86.6751,80.734 81.5,80.5C 78.8333,80.1667 76.1667,79.8333 73.5,79.5C 73.8417,78.6618 74.5084,78.3284 75.5,78.5C 78.5448,78.4921 81.5448,78.1587 84.5,77.5 Z"/></g>
<g><path style="opacity:1" fill="#d0d8d2" d="M 64.5,73.5 C 62.615,77.1972 63.615,79.5306 67.5,80.5C 67.1583,81.3382 66.4916,81.6716 65.5,81.5C 63.1667,80.8333 60.8333,80.1667 58.5,79.5C 60.1827,78.1466 61.5161,76.4799 62.5,74.5C 63.1667,74.1667 63.8333,73.8333 64.5,73.5 Z"/></g>
<g><path style="opacity:0.2" fill="#c2e4f8" d="M 134.5,76.5 C 135.434,77.5676 135.768,78.901 135.5,80.5C 133.585,80.7845 131.919,80.4511 130.5,79.5C 131.833,79.5 133.167,79.5 134.5,79.5C 134.5,78.5 134.5,77.5 134.5,76.5 Z"/></g>
<g><path style="opacity:0.282" fill="#a8daf2" d="M 159.5,78.5 C 157.883,79.9723 155.883,80.639 153.5,80.5C 151.955,80.4892 150.622,80.1558 149.5,79.5C 152.86,79.3841 156.193,79.0508 159.5,78.5 Z"/></g>
<g><path style="opacity:0.208" fill="#bbe2f4" d="M 189.5,75.5 C 191.213,76.6354 191.88,78.302 191.5,80.5C 189.585,80.7845 187.919,80.4511 186.5,79.5C 190.186,79.87 191.186,78.5367 189.5,75.5 Z"/></g>
<g><path style="opacity:0.186" fill="#a8d8ef" d="M 205.5,76.5 C 209.783,78.9579 214.449,79.9579 219.5,79.5C 216.696,80.6378 213.696,80.8045 210.5,80C 208.119,79.7767 206.453,78.61 205.5,76.5 Z"/></g>
<g><path style="opacity:1" fill="#949897" d="M 69.5,79.5 C 70.8333,79.5 72.1667,79.5 73.5,79.5C 76.1667,79.8333 78.8333,80.1667 81.5,80.5C 83.7812,80.0773 85.4479,80.744 86.5,82.5C 79.3989,82.2298 72.3989,81.8965 65.5,81.5C 66.4916,81.6716 67.1583,81.3382 67.5,80.5C 68.4916,80.6716 69.1583,80.3382 69.5,79.5 Z"/></g>
<g><path style="opacity:0.445" fill="#a5ab9f" d="M 101.5,56.5 C 102.659,67.6591 102.826,78.9924 102,90.5C 101.722,91.4158 101.222,92.0825 100.5,92.5C 100.5,91.8333 100.167,91.5 99.5,91.5C 99.5,90.8333 99.5,90.1667 99.5,89.5C 101.048,89.1788 101.715,88.1788 101.5,86.5C 99.8333,86.5 98.1667,86.5 96.5,86.5C 96.8333,85.8333 97.1667,85.1667 97.5,84.5C 98.1667,84.5 98.8333,84.5 99.5,84.5C 99.8333,85.8333 100.167,85.8333 100.5,84.5C 101.043,84.44 101.376,84.1067 101.5,83.5C 99.0411,82.6737 96.5411,82.007 94,81.5C 91.5661,82.3223 89.0661,82.6556 86.5,82.5C 85.4479,80.744 83.7812,80.0773 81.5,80.5C 86.6751,80.734 92.0084,80.4007 97.5,79.5C 98.8333,80.8333 100.167,80.8333 101.5,79.5C 101.5,72.1667 101.5,64.8333 101.5,57.5C 101.5,57.1667 101.5,56.8333 101.5,56.5 Z"/></g>
<g><path style="opacity:0.924" fill="#2d272b" d="M 65.5,81.5 C 72.3989,81.8965 79.3989,82.2298 86.5,82.5C 89.0661,82.6556 91.5661,82.3223 94,81.5C 96.5411,82.007 99.0411,82.6737 101.5,83.5C 101.376,84.1067 101.043,84.44 100.5,84.5C 86.3392,83.6688 72.0059,83.1688 57.5,83C 60.1677,82.433 62.8344,81.933 65.5,81.5 Z"/></g>
<g><path style="opacity:0.635" fill="#7d786f" d="M 56.5,56.5 C 71.5,56.5 86.5,56.5 101.5,56.5C 101.5,56.8333 101.5,57.1667 101.5,57.5C 88.3226,57.1712 75.3226,57.5045 62.5,58.5C 62.1667,58.5 61.8333,58.5 61.5,58.5C 60.1667,58.5 58.8333,58.5 57.5,58.5C 57.1755,65.6866 57.5088,72.6866 58.5,79.5C 60.8333,80.1667 63.1667,80.8333 65.5,81.5C 62.8344,81.933 60.1677,82.433 57.5,83C 72.0059,83.1688 86.3392,83.6688 100.5,84.5C 100.167,84.5 99.8333,84.5 99.5,84.5C 98.8333,84.5 98.1667,84.5 97.5,84.5C 85.1667,84.5 72.8333,84.5 60.5,84.5C 59.1667,84.5 57.8333,84.5 56.5,84.5C 56.5,75.1667 56.5,65.8333 56.5,56.5 Z"/></g>
<g><path style="opacity:0.306" fill="#b4cfe1" d="M 77.5,86.5 C 74.9591,87.1032 72.6257,87.1032 70.5,86.5C 72.9787,85.3773 75.312,85.3773 77.5,86.5 Z"/></g>
<g><path style="opacity:0.235" fill="#a2c3d8" d="M 85.5,86.5 C 83.901,86.2322 82.5676,86.5655 81.5,87.5C 79.901,87.7678 78.5676,87.4345 77.5,86.5C 80.3283,85.5033 82.995,85.5033 85.5,86.5 Z"/></g>
<g><path style="opacity:1" fill="#3c769e" d="M 70.5,86.5 C 72.6257,87.1032 74.9591,87.1032 77.5,86.5C 78.5676,87.4345 79.901,87.7678 81.5,87.5C 80.4479,89.256 78.7812,89.9227 76.5,89.5C 76.1667,89.5 75.8333,89.5 75.5,89.5C 74.5084,89.3284 73.8417,89.6618 73.5,90.5C 73.1667,90.5 72.8333,90.5 72.5,90.5C 71.8333,90.5 71.1667,90.5 70.5,90.5C 70.1667,90.5 69.8333,90.5 69.5,90.5C 69.5,89.8333 69.1667,89.5 68.5,89.5C 68.1667,89.5 67.8333,89.5 67.5,89.5C 66.5084,89.3284 65.8417,89.6618 65.5,90.5C 63.3792,90.6747 61.3792,90.3414 59.5,89.5C 57.9519,89.1788 57.2852,88.1788 57.5,86.5C 59.1667,86.5 60.8333,86.5 62.5,86.5C 65.3283,85.5033 67.995,85.5033 70.5,86.5 Z"/></g>
<g><path style="opacity:1" fill="#4c7fa5" d="M 96.5,86.5 C 98.1667,86.5 99.8333,86.5 101.5,86.5C 101.715,88.1788 101.048,89.1788 99.5,89.5C 97.847,89.6596 96.5137,90.3263 95.5,91.5C 95.1667,91.5 94.8333,91.5 94.5,91.5C 93.791,90.596 92.791,90.2627 91.5,90.5C 91.1667,89.1667 90.8333,89.1667 90.5,90.5C 89.209,90.2627 88.209,90.596 87.5,91.5C 87.1667,91.5 86.8333,91.5 86.5,91.5C 86.5,90.8333 86.1667,90.5 85.5,90.5C 85.1583,89.6618 84.4916,89.3284 83.5,89.5C 83.1667,88.5 82.5,87.8333 81.5,87.5C 82.5676,86.5655 83.901,86.2322 85.5,86.5C 89.1667,85.1667 92.8333,85.1667 96.5,86.5 Z"/></g>
<g><path style="opacity:0.745" fill="#a0cfe4" d="M 157.5,88.5 C 155.554,89.0347 154.554,90.368 154.5,92.5C 152.863,93.2178 151.197,93.3845 149.5,93C 149.333,91.1667 149.167,89.3333 149,87.5C 149.689,86.6433 150.522,85.9767 151.5,85.5C 153.444,86.8007 155.444,87.8007 157.5,88.5 Z"/></g>
<g><path style="opacity:0.698" fill="#98c9df" d="M 137.5,92.5 C 137.5,91.1667 137.5,89.8333 137.5,88.5C 138.542,87.2089 139.708,87.2089 141,88.5C 141.684,84.9068 143.184,84.5735 145.5,87.5C 146.641,89.4213 146.808,91.4213 146,93.5C 143.235,92.7057 140.401,92.3723 137.5,92.5 Z"/></g>
<g><path style="opacity:0.004" fill="#e4eff8" d="M 65.5,90.5 C 65.8417,89.6618 66.5084,89.3284 67.5,89.5C 67.8333,90.8333 68.1667,90.8333 68.5,89.5C 69.1667,89.5 69.5,89.8333 69.5,90.5C 69.5,90.8333 69.5,91.1667 69.5,91.5C 68.5,91.5 67.5,91.5 66.5,91.5C 66.5,90.8333 66.1667,90.5 65.5,90.5 Z"/></g>
<g><path style="opacity:0.957" fill="#9acae0" d="M 223.5,85.5 C 227.337,87.7001 231.337,88.5335 235.5,88C 236.554,89.3876 236.72,90.8876 236,92.5C 231.501,93.128 226.667,93.2947 221.5,93C 220.446,91.6124 220.28,90.1124 221,88.5C 222.417,87.9221 223.25,86.9221 223.5,85.5 Z"/></g>
<g><path style="opacity:0.582" fill="#9dcfe1" d="M 250.5,92.5 C 249.833,91.1667 249.167,89.8333 248.5,88.5C 250.229,87.8825 251.729,86.8825 253,85.5C 255.378,88.9297 258.045,89.263 261,86.5C 262.694,88.6832 262.861,91.0165 261.5,93.5C 257.729,93.3325 254.062,92.9991 250.5,92.5 Z"/></g>
<g><path style="opacity:0.475" fill="#bec9cf" d="M 56.5,56.5 C 56.5,65.8333 56.5,75.1667 56.5,84.5C 57.8333,84.5 59.1667,84.5 60.5,84.5C 61.1667,85.1667 61.8333,85.8333 62.5,86.5C 60.8333,86.5 59.1667,86.5 57.5,86.5C 57.2852,88.1788 57.9519,89.1788 59.5,89.5C 59.5,90.1667 59.5,90.8333 59.5,91.5C 58.6618,91.8417 58.3284,92.5084 58.5,93.5C 57.0735,91.8516 56.2401,89.8516 56,87.5C 55.1748,76.9917 55.3415,66.6584 56.5,56.5 Z"/></g>
<g><path style="opacity:0.051" fill="#c3e1f1" d="M 73.5,90.5 C 73.8417,89.6618 74.5084,89.3284 75.5,89.5C 75.5,90.1667 75.8333,90.5 76.5,90.5C 76.5,90.8333 76.5,91.1667 76.5,91.5C 75.8333,91.5 75.1667,91.5 74.5,91.5C 74.5,90.8333 74.1667,90.5 73.5,90.5 Z"/></g>
<g><path style="opacity:0.055" fill="#cee4f9" d="M 83.5,89.5 C 84.4916,89.3284 85.1583,89.6618 85.5,90.5C 84.8333,90.5 84.5,90.8333 84.5,91.5C 83.8333,91.5 83.1667,91.5 82.5,91.5C 82.5,91.1667 82.5,90.8333 82.5,90.5C 83.1667,90.5 83.5,90.1667 83.5,89.5 Z"/></g>
<g><path style="opacity:0.455" fill="#9ccee1" d="M 123.5,87.5 C 122.167,87.5 120.833,87.5 119.5,87.5C 120.543,91.7296 121.876,92.063 123.5,88.5C 127.891,87.3533 132.558,87.3533 137.5,88.5C 137.5,89.8333 137.5,91.1667 137.5,92.5C 130.786,93.1978 124.453,93.1978 118.5,92.5C 117.971,89.3959 118.971,87.0625 121.5,85.5C 122.522,85.8555 123.189,86.5222 123.5,87.5 Z"/></g>
<g><path style="opacity:0.965" fill="#5faacf" d="M 123.5,87.5 C 123.5,87.8333 123.5,88.1667 123.5,88.5C 121.876,92.063 120.543,91.7296 119.5,87.5C 120.833,87.5 122.167,87.5 123.5,87.5 Z"/></g>
<g><path style="opacity:0.596" fill="#a3d5e6" d="M 187.5,88.5 C 191.471,87.8055 195.638,87.8055 200,88.5C 200.72,90.1124 200.554,91.6124 199.5,93C 196.599,93.3084 193.599,93.1417 190.5,92.5C 190.446,90.368 189.446,89.0347 187.5,88.5 Z"/></g>
<g><path style="opacity:0.796" fill="#8bc3d9" d="M 248.5,88.5 C 249.167,89.8333 249.833,91.1667 250.5,92.5C 246.684,93.1713 242.851,93.5046 239,93.5C 238.126,90.6213 238.46,87.9546 240,85.5C 241.667,88.1667 243.333,88.1667 245,85.5C 246.145,86.6364 247.312,87.6364 248.5,88.5 Z"/></g>
<g><path style="opacity:0.039" fill="#c0ddf1" d="M 70.5,90.5 C 71.1667,90.5 71.8333,90.5 72.5,90.5C 72.5,90.8333 72.5,91.1667 72.5,91.5C 71.8333,91.5 71.5,91.8333 71.5,92.5C 70.5084,92.6716 69.8417,92.3382 69.5,91.5C 70.1667,91.5 70.5,91.1667 70.5,90.5 Z"/></g>
<g><path style="opacity:0.369" fill="#9bcce2" d="M 154.5,92.5 C 154.554,90.368 155.554,89.0347 157.5,88.5C 158.923,84.7247 160.756,84.7247 163,88.5C 163.221,85.0569 164.221,84.7236 166,87.5C 167.545,86.1787 168.711,86.5121 169.5,88.5C 168.289,89.7202 168.289,90.8869 169.5,92C 168.975,92.6924 168.308,93.1924 167.5,93.5C 163.141,92.9869 158.808,92.6536 154.5,92.5 Z"/></g>
<g><path style="opacity:0.835" fill="#9bc9dd" d="M 187.5,88.5 C 189.446,89.0347 190.446,90.368 190.5,92.5C 184.303,93.5599 178.137,93.5599 172,92.5C 171.149,89.947 171.482,87.6137 173,85.5C 174.808,85.8881 176.475,85.8881 178,85.5C 179.154,86.7433 180.488,87.7433 182,88.5C 183.828,87.2475 185.661,87.2475 187.5,88.5 Z"/></g>
<g><path style="opacity:0.855" fill="#5ba8d1" d="M 172.5,87.5 C 173.5,87.5 174.5,87.5 175.5,87.5C 175.5,88.8333 175.5,90.1667 175.5,91.5C 174.5,91.5 173.5,91.5 172.5,91.5C 172.5,90.1667 172.5,88.8333 172.5,87.5 Z"/></g>
<g><path style="opacity:0.153" fill="#a6d2e2" d="M 215.5,93.5 C 214.587,91.9139 214.587,90.4139 215.5,89C 214.207,88.51 212.873,88.3433 211.5,88.5C 211.5,90.1667 211.5,91.8333 211.5,93.5C 209.659,92.3267 207.826,92.3267 206,93.5C 201.333,90.8333 201.333,88.1667 206,85.5C 208.616,85.0186 211.116,85.6853 213.5,87.5C 215.029,87.4712 216.196,86.8045 217,85.5C 219.292,88.7698 218.792,91.4365 215.5,93.5 Z"/></g>
<g><path style="opacity:0.89" fill="#74b1d8" d="M 215.5,93.5 C 214.167,94.8333 212.833,94.8333 211.5,93.5C 211.5,91.8333 211.5,90.1667 211.5,88.5C 212.873,88.3433 214.207,88.51 215.5,89C 214.587,90.4139 214.587,91.9139 215.5,93.5 Z"/></g>
<g><path style="opacity:0.761" fill="#5a8ca9" d="M 81.5,87.5 C 82.5,87.8333 83.1667,88.5 83.5,89.5C 82.8333,89.5 82.5,89.8333 82.5,90.5C 81.325,90.281 80.325,90.6143 79.5,91.5C 80.2334,92.087 81.2334,92.087 82.5,91.5C 83.1667,91.5 83.8333,91.5 84.5,91.5C 85.1667,91.5 85.8333,91.5 86.5,91.5C 86.8333,92.8333 87.1667,92.8333 87.5,91.5C 88.1667,91.5 88.8333,91.5 89.5,91.5C 89.5858,92.4959 89.2524,93.3292 88.5,94C 90.7078,94.1909 92.7078,94.6909 94.5,95.5C 94.1667,95.5 93.8333,95.5 93.5,95.5C 91.5853,95.2155 89.9187,95.5489 88.5,96.5C 87.5,96.5 86.5,96.5 85.5,96.5C 84.4324,95.5655 83.099,95.2322 81.5,95.5C 82.7175,94.8386 84.0508,94.1719 85.5,93.5C 83.5599,92.4716 81.5599,92.4716 79.5,93.5C 78.2867,93.2528 77.62,92.5862 77.5,91.5C 78.5573,90.794 78.2239,90.4607 76.5,90.5C 76.5,90.1667 76.5,89.8333 76.5,89.5C 78.7812,89.9227 80.4479,89.256 81.5,87.5 Z"/></g>
<g><path style="opacity:1" fill="#3d7ba0" d="M 59.5,91.5 C 61.8817,92.5463 64.2151,92.5463 66.5,91.5C 67.5,91.5 68.5,91.5 69.5,91.5C 69.8417,92.3382 70.5084,92.6716 71.5,92.5C 72.1667,92.5 72.5,92.1667 72.5,91.5C 73.1667,91.5 73.8333,91.5 74.5,91.5C 75.1667,91.5 75.8333,91.5 76.5,91.5C 76.8333,91.5 77.1667,91.5 77.5,91.5C 77.62,92.5862 78.2867,93.2528 79.5,93.5C 81.5599,92.4716 83.5599,92.4716 85.5,93.5C 84.0508,94.1719 82.7175,94.8386 81.5,95.5C 81.1667,95.5 80.8333,95.5 80.5,95.5C 79.5,95.5 78.5,95.5 77.5,95.5C 76.1667,95.5 74.8333,95.5 73.5,95.5C 72.5,95.5 71.5,95.5 70.5,95.5C 68.8333,95.5 67.1667,95.5 65.5,95.5C 63.2967,95.0651 61.2967,95.0651 59.5,95.5C 58.6618,95.1583 58.3284,94.4916 58.5,93.5C 58.3284,92.5084 58.6618,91.8417 59.5,91.5 Z"/></g>
<g><path style="opacity:1" fill="#42799c" d="M 90.5,90.5 C 90.8333,90.5 91.1667,90.5 91.5,90.5C 92.209,91.404 93.209,91.7373 94.5,91.5C 94.8333,92.8333 95.1667,92.8333 95.5,91.5C 96.8333,91.5 98.1667,91.5 99.5,91.5C 100.167,91.5 100.5,91.8333 100.5,92.5C 100.737,93.791 100.404,94.791 99.5,95.5C 97.8333,95.5 96.1667,95.5 94.5,95.5C 92.7078,94.6909 90.7078,94.1909 88.5,94C 89.2524,93.3292 89.5858,92.4959 89.5,91.5C 90.1667,91.5 90.5,91.1667 90.5,90.5 Z"/></g>
<g><path style="opacity:0.337" fill="#a0adb8" d="M 65.5,95.5 C 65.5,95.8333 65.5,96.1667 65.5,96.5C 63.5992,96.2465 62.9326,96.5798 63.5,97.5C 63.1667,98.1667 62.8333,98.8333 62.5,99.5C 60.7376,98.7377 59.7376,97.4044 59.5,95.5C 61.2967,95.0651 63.2967,95.0651 65.5,95.5 Z"/></g>
<g><path style="opacity:0.592" fill="#a3becc" d="M 70.5,96.5 C 70.5,96.1667 70.5,95.8333 70.5,95.5C 71.5,95.5 72.5,95.5 73.5,95.5C 74.8333,96.8333 76.1667,96.8333 77.5,95.5C 78.5,95.5 79.5,95.5 80.5,95.5C 80.5,95.8333 80.5,96.1667 80.5,96.5C 79.5084,96.3284 78.8417,96.6618 78.5,97.5C 76.5,97.5 74.5,97.5 72.5,97.5C 72.1583,96.6618 71.4916,96.3284 70.5,96.5 Z"/></g>
<g><path style="opacity:0.455" fill="#a3acb0" d="M 93.5,96.5 C 93.5,96.1667 93.5,95.8333 93.5,95.5C 93.8333,95.5 94.1667,95.5 94.5,95.5C 96.1667,95.5 97.8333,95.5 99.5,95.5C 98.9744,97.2303 97.9744,98.5637 96.5,99.5C 95.5,98.8333 94.5,98.1667 93.5,97.5C 97.5,97.1667 97.5,96.8333 93.5,96.5 Z"/></g>
<g><path style="opacity:0.007" fill="#fefffe" d="M 154.5,97.5 C 156.288,96.3775 158.288,96.2109 160.5,97C 158.527,97.4955 156.527,97.6621 154.5,97.5 Z"/></g>
<g><path style="opacity:0.007" fill="#fefffe" d="M 193.5,97.5 C 194.601,96.4017 195.934,96.235 197.5,97C 196.207,97.49 194.873,97.6567 193.5,97.5 Z"/></g>
<g><path style="opacity:0.009" fill="#fefffe" d="M 208.5,97.5 C 211.64,96.3592 214.973,96.1925 218.5,97C 215.183,97.4983 211.85,97.665 208.5,97.5 Z"/></g>
<g><path style="opacity:0.038" fill="#ece9e9" d="M 221.5,97.5 C 234.327,96.3398 247.327,96.1731 260.5,97C 247.504,97.4999 234.504,97.6666 221.5,97.5 Z"/></g>
<g><path style="opacity:1" fill="#3c789c" d="M 65.5,96.5 C 67.1667,96.5 68.8333,96.5 70.5,96.5C 70.8417,97.3382 71.5084,97.6716 72.5,97.5C 74.5,97.5 76.5,97.5 78.5,97.5C 78.7373,98.791 78.404,99.791 77.5,100.5C 77.1667,100.5 76.8333,100.5 76.5,100.5C 75.8333,100.5 75.1667,100.5 74.5,100.5C 73.8333,100.5 73.5,100.833 73.5,101.5C 72.5,101.5 71.5,101.5 70.5,101.5C 69.4617,99.4805 68.1284,99.1472 66.5,100.5C 65.8333,100.833 65.1667,101.167 64.5,101.5C 63.5,101.167 62.8333,100.5 62.5,99.5C 62.8333,98.8333 63.1667,98.1667 63.5,97.5C 64.4916,97.6716 65.1583,97.3382 65.5,96.5 Z"/></g>
<g><path style="opacity:1" fill="#40779e" d="M 88.5,96.5 C 90.1667,96.5 91.8333,96.5 93.5,96.5C 93.5,96.8333 93.5,97.1667 93.5,97.5C 94.5,98.1667 95.5,98.8333 96.5,99.5C 93.9407,99.1984 91.6074,99.5318 89.5,100.5C 89.5,100.833 89.5,101.167 89.5,101.5C 87.8333,101.5 86.1667,101.5 84.5,101.5C 84.5,101.167 84.5,100.833 84.5,100.5C 80.3922,98.6701 80.7255,97.6701 85.5,97.5C 86.791,97.7373 87.791,97.404 88.5,96.5 Z"/></g>
<g><path style="opacity:0.89" fill="#8699a6" d="M 89.5,100.5 C 91.6074,99.5318 93.9407,99.1984 96.5,99.5C 95.1092,101.89 93.1092,103.557 90.5,104.5C 88.8333,103.833 87.1667,103.167 85.5,102.5C 87.099,102.768 88.4324,102.434 89.5,101.5C 93.5,101.167 93.5,100.833 89.5,100.5 Z"/></g>
<g><path style="opacity:0.298" fill="#a5c1ce" d="M 70.5,101.5 C 69.8333,101.5 69.5,101.833 69.5,102.5C 68.209,102.263 67.209,102.596 66.5,103.5C 65.5,103.167 64.8333,102.5 64.5,101.5C 65.1667,101.167 65.8333,100.833 66.5,100.5C 68.1284,99.1472 69.4617,99.4805 70.5,101.5 Z"/></g>
<g><path style="opacity:0.22" fill="#c6e3ea" d="M 74.5,100.5 C 75.1667,101.833 75.8333,101.833 76.5,100.5C 76.8333,100.5 77.1667,100.5 77.5,100.5C 77.5,100.833 77.5,101.167 77.5,101.5C 77.5,101.833 77.5,102.167 77.5,102.5C 76.1667,102.5 74.8333,102.5 73.5,102.5C 73.5,102.167 73.5,101.833 73.5,101.5C 73.5,100.833 73.8333,100.5 74.5,100.5 Z"/></g>
<g><path style="opacity:0.859" fill="#93cbe1" d="M 140.5,103.5 C 137.833,103.5 135.167,103.5 132.5,103.5C 135.167,100.833 137.833,100.833 140.5,103.5 Z"/></g>
<g><path style="opacity:0.659" fill="#a0d1e8" d="M 226.5,112.5 C 226.167,112.5 225.833,112.5 225.5,112.5C 224.833,100.5 224.167,100.5 223.5,112.5C 223.5,112.833 223.5,113.167 223.5,113.5C 222.795,110.772 222.128,107.939 221.5,105C 222.208,102.232 223.708,101.399 226,102.5C 226.498,105.817 226.665,109.15 226.5,112.5 Z"/></g>
<g><path style="opacity:0.655" fill="#98cce0" d="M 241.5,104.5 C 240.292,103.766 238.959,103.433 237.5,103.5C 236.911,107.971 237.577,111.971 239.5,115.5C 238.791,116.404 237.791,116.737 236.5,116.5C 236.334,111.821 236.501,107.155 237,102.5C 239.224,101.359 240.724,102.026 241.5,104.5 Z"/></g>
<g><path style="opacity:1" fill="#4595c1" d="M 218.5,103.5 C 221.761,106.32 222.261,109.654 220,113.5C 219.184,114.823 218.017,115.489 216.5,115.5C 214.5,115.5 212.5,115.5 210.5,115.5C 210.5,111.5 210.5,107.5 210.5,103.5C 213.167,103.5 215.833,103.5 218.5,103.5 Z M 216.5,111.5 C 216.5,111.833 216.5,112.167 216.5,112.5C 215.5,112.5 214.5,112.5 213.5,112.5C 213.148,109.927 213.648,107.594 215,105.5C 216.319,107.25 216.819,109.25 216.5,111.5 Z"/></g>
<g><path style="opacity:0.843" fill="#57809d" d="M 80.5,96.5 C 82.1667,96.5 83.8333,96.5 85.5,96.5C 85.5,96.8333 85.5,97.1667 85.5,97.5C 80.7255,97.6701 80.3922,98.6701 84.5,100.5C 81.8333,100.833 81.8333,101.167 84.5,101.5C 84.5,102.167 84.8333,102.5 85.5,102.5C 87.1667,103.167 88.8333,103.833 90.5,104.5C 89.3406,106.25 87.674,107.25 85.5,107.5C 84.7611,107.631 84.0944,107.464 83.5,107C 84.7383,106.31 84.7383,105.81 83.5,105.5C 80.1898,103.073 76.5231,102.907 72.5,105C 72.7284,105.399 73.0618,105.565 73.5,105.5C 73.1583,106.338 72.4916,106.672 71.5,106.5C 69.5659,105.89 67.8993,104.89 66.5,103.5C 67.209,102.596 68.209,102.263 69.5,102.5C 70.8333,102.5 72.1667,102.5 73.5,102.5C 74.8333,102.5 76.1667,102.5 77.5,102.5C 82.8333,102.167 82.8333,101.833 77.5,101.5C 77.5,101.167 77.5,100.833 77.5,100.5C 78.404,99.791 78.7373,98.791 78.5,97.5C 79.4916,97.6716 80.1583,97.3382 80.5,96.5 Z"/></g>
<g><path style="opacity:0.965" fill="#296f9e" d="M 83.5,105.5 C 82.5084,105.328 81.8417,105.662 81.5,106.5C 81.1667,106.5 80.8333,106.5 80.5,106.5C 79.5,106.5 78.5,106.5 77.5,106.5C 76.4324,105.566 75.099,105.232 73.5,105.5C 73.0618,105.565 72.7284,105.399 72.5,105C 76.5231,102.907 80.1898,103.073 83.5,105.5 Z"/></g>
<g><path style="opacity:0.643" fill="#9ad0e8" d="M 233.5,112.5 C 232.993,100.518 232.16,100.518 231,112.5C 229.384,113.801 227.884,113.801 226.5,112.5C 227.822,112.67 228.989,112.337 230,111.5C 230.089,107.972 230.756,104.638 232,101.5C 233.631,103.059 234.464,105.059 234.5,107.5C 234.493,109.369 234.16,111.036 233.5,112.5 Z"/></g>
<g><path style="opacity:1" fill="#3d96c7" d="M 241.5,104.5 C 242.401,105.29 243.068,106.29 243.5,107.5C 243.312,109.103 243.812,110.437 245,111.5C 245.182,108.774 245.682,106.107 246.5,103.5C 247.491,107.445 247.824,111.445 247.5,115.5C 245.872,116.853 244.538,116.519 243.5,114.5C 240.75,105.685 239.416,105.685 239.5,114.5C 239.5,114.833 239.5,115.167 239.5,115.5C 237.577,111.971 236.911,107.971 237.5,103.5C 238.959,103.433 240.292,103.766 241.5,104.5 Z"/></g>
<g><path style="opacity:0.333" fill="#cec8a7" d="M 62.5,107.5 C 56.0738,106.88 50.0738,107.547 44.5,109.5C 43.7326,108.828 43.0659,107.995 42.5,107C 49.3464,106.179 56.013,106.346 62.5,107.5 Z"/></g>
<g><path style="opacity:0.365" fill="#c9bfa4" d="M 96.5,107.5 C 103.011,106.182 109.678,106.182 116.5,107.5C 115.812,108.855 114.812,109.855 113.5,110.5C 113.5,109.5 113.5,108.5 113.5,107.5C 107.833,107.5 102.167,107.5 96.5,107.5 Z"/></g>
<g><path style="opacity:1" fill="#72bcdc" d="M 132.5,103.5 C 132.131,105.993 132.797,106.66 134.5,105.5C 133.85,107.435 133.517,109.435 133.5,111.5C 131.674,106.093 130.674,106.426 130.5,112.5C 130.167,112.5 129.833,112.5 129.5,112.5C 128.925,108.845 129.925,105.845 132.5,103.5 Z"/></g>
<g><path style="opacity:1" fill="#79bcdc" d="M 161.5,115.5 C 162.376,115.631 163.043,115.298 163.5,114.5C 162.982,112.1 161.815,110.1 160,108.5C 159.29,109.973 158.124,110.64 156.5,110.5C 156.022,107.722 157.022,105.722 159.5,104.5C 158.192,103.374 156.858,103.374 155.5,104.5C 156.819,101.255 158.652,100.922 161,103.5C 162.684,107.716 163.851,112.049 164.5,116.5C 163.209,116.737 162.209,116.404 161.5,115.5 Z"/></g>
<g><path style="opacity:1" fill="#6cb4d4" d="M 192.5,110.5 C 192.5,111.167 192.5,111.833 192.5,112.5C 191.868,110.257 190.534,108.591 188.5,107.5C 187.833,107.5 187.167,107.5 186.5,107.5C 187.007,106.141 188.007,105.141 189.5,104.5C 188.311,103.571 186.978,103.238 185.5,103.5C 186.37,101.401 187.703,101.068 189.5,102.5C 190.897,105.026 191.897,107.692 192.5,110.5 Z"/></g>
<g><path style="opacity:0.882" fill="#54a2ca" d="M 233.5,112.5 C 232.758,115.138 230.925,116.471 228,116.5C 225.648,116.586 224.148,115.586 223.5,113.5C 223.5,113.167 223.5,112.833 223.5,112.5C 224.167,112.5 224.833,112.5 225.5,112.5C 225.833,112.5 226.167,112.5 226.5,112.5C 227.884,113.801 229.384,113.801 231,112.5C 232.16,100.518 232.993,100.518 233.5,112.5 Z"/></g>
<g><path style="opacity:1" fill="#6fb3d3" d="M 253.5,111.5 C 252.034,110.653 251.2,109.32 251,107.5C 250.018,110.775 250.851,113.441 253.5,115.5C 250.703,115.033 249.369,113.367 249.5,110.5C 249.5,109.5 249.5,108.5 249.5,107.5C 251.544,102.147 255.211,100.647 260.5,103C 261.784,104.297 261.617,105.464 260,106.5C 254.846,104.175 252.679,105.842 253.5,111.5 Z"/></g>
<g><path style="opacity:0.62" fill="#bbbfb7" d="M 73.5,105.5 C 75.099,105.232 76.4324,105.566 77.5,106.5C 78.5,106.5 79.5,106.5 80.5,106.5C 81.8493,107.644 82.1826,107.644 81.5,106.5C 81.8417,105.662 82.5084,105.328 83.5,105.5C 84.7383,105.81 84.7383,106.31 83.5,107C 84.0944,107.464 84.7611,107.631 85.5,107.5C 88.9619,108.482 92.6286,108.815 96.5,108.5C 96.5,108.833 96.5,109.167 96.5,109.5C 90.1222,109.705 83.7889,109.372 77.5,108.5C 76.1667,108.5 74.8333,108.5 73.5,108.5C 72.8333,107.833 72.1667,107.167 71.5,106.5C 72.4916,106.672 73.1583,106.338 73.5,105.5 Z"/></g>
<g><path style="opacity:1" fill="#81c4df" d="M 129.5,112.5 C 129.5,113.833 129.5,115.167 129.5,116.5C 126.708,116.548 124.875,115.215 124,112.5C 123.768,113.737 123.268,114.737 122.5,115.5C 122.338,113.473 122.505,111.473 123,109.5C 123.889,110.888 124.389,110.722 124.5,109C 123.37,107.24 122.37,105.407 121.5,103.5C 120.509,107.445 120.176,111.445 120.5,115.5C 119.837,113.527 119.504,111.361 119.5,109C 119.391,106.3 119.891,103.8 121,101.5C 122.585,102.376 123.585,103.709 124,105.5C 125,103.833 126.333,102.5 128,101.5C 129.365,102.593 129.699,103.926 129,105.5C 125.897,107.992 126.063,110.326 129.5,112.5 Z"/></g>
<g><path style="opacity:1" fill="#79bddc" d="M 200.5,104.5 C 201.906,104.973 202.573,105.973 202.5,107.5C 202.5,108.167 202.5,108.833 202.5,109.5C 201.596,110.209 201.263,111.209 201.5,112.5C 200.685,111.571 199.852,110.571 199,109.5C 199.195,111.126 199.195,112.793 199,114.5C 198.29,115.973 197.124,116.64 195.5,116.5C 195.334,111.821 195.501,107.155 196,102.5C 198.224,101.359 199.724,102.026 200.5,104.5 Z"/></g>
<g><path style="opacity:1" fill="#2387b7" d="M 200.5,104.5 C 200.5,105.5 200.5,106.5 200.5,107.5C 199.5,107.5 198.5,107.5 197.5,107.5C 197.664,110.187 197.497,112.854 197,115.5C 196.501,111.514 196.334,107.514 196.5,103.5C 197.959,103.433 199.292,103.766 200.5,104.5 Z"/></g>
<g><path style="opacity:0.123" fill="#e4deb7" d="M 62.5,107.5 C 66.0641,108.423 69.7307,108.756 73.5,108.5C 74.8333,108.5 76.1667,108.5 77.5,108.5C 72.5,109.833 67.5,109.833 62.5,108.5C 62.5,108.167 62.5,107.833 62.5,107.5 Z"/></g>
<g><path style="opacity:1" fill="#2688bd" d="M 179.5,107.5 C 178.222,107.218 177.222,106.551 176.5,105.5C 175.791,104.596 174.791,104.263 173.5,104.5C 173.5,105.833 173.5,107.167 173.5,108.5C 175.621,108.325 177.621,108.659 179.5,109.5C 179.833,109.5 180.167,109.5 180.5,109.5C 180.5,109.833 180.5,110.167 180.5,110.5C 180.5,111.5 180.5,112.5 180.5,113.5C 180.5,114.167 180.167,114.5 179.5,114.5C 175.944,114.725 175.61,113.892 178.5,112C 178.164,110.97 177.497,110.47 176.5,110.5C 175.791,109.596 174.791,109.263 173.5,109.5C 173.923,111.781 173.256,113.448 171.5,114.5C 171.5,110.833 171.5,107.167 171.5,103.5C 173.857,103.337 176.19,103.503 178.5,104C 179.337,105.011 179.67,106.178 179.5,107.5 Z M 176.5,105.5 C 176.361,107.337 175.694,107.67 174.5,106.5C 174.957,105.702 175.624,105.369 176.5,105.5 Z M 176.5,110.5 C 177.475,112.54 176.808,112.873 174.5,111.5C 174.957,110.702 175.624,110.369 176.5,110.5 Z"/></g>
<g><path style="opacity:0.996" fill="#3b91be" d="M 202.5,114.5 C 201.662,114.158 201.328,113.492 201.5,112.5C 201.263,111.209 201.596,110.209 202.5,109.5C 202.783,110.289 203.283,110.956 204,111.5C 204.182,108.774 204.682,106.107 205.5,103.5C 206.489,107.107 206.823,110.774 206.5,114.5C 205.167,114.5 203.833,114.5 202.5,114.5 Z"/></g>
<g><path style="opacity:0.549" fill="#97d0ec" d="M 218.5,103.5 C 215.833,103.5 213.167,103.5 210.5,103.5C 210.5,107.5 210.5,111.5 210.5,115.5C 212.5,115.5 214.5,115.5 216.5,115.5C 214.393,116.468 212.059,116.802 209.5,116.5C 209.334,111.821 209.501,107.155 210,102.5C 213.064,101.216 215.898,101.549 218.5,103.5 Z"/></g>
<g><path style="opacity:0.141" fill="#bcf0fc" d="M 216.5,111.5 C 216.819,109.25 216.319,107.25 215,105.5C 213.648,107.594 213.148,109.927 213.5,112.5C 214.5,112.5 215.5,112.5 216.5,112.5C 215.432,113.434 214.099,113.768 212.5,113.5C 212.5,110.5 212.5,107.5 212.5,104.5C 214.144,104.286 215.644,104.62 217,105.5C 217.789,107.712 217.622,109.712 216.5,111.5 Z"/></g>
<g><path style="opacity:1" fill="#2b88b7" d="M 225.5,112.5 C 224.833,112.5 224.167,112.5 223.5,112.5C 224.167,100.5 224.833,100.5 225.5,112.5 Z"/></g>
<g><path style="opacity:1" fill="#eed529" d="M 53.5,108.5 C 53.5,110.167 53.5,111.833 53.5,113.5C 51.1667,113.5 48.8333,113.5 46.5,113.5C 48.9312,111.932 48.9312,110.432 46.5,109C 48.8098,108.503 51.1432,108.337 53.5,108.5 Z"/></g>
<g><path style="opacity:0.996" fill="#93861d" d="M 53.5,108.5 C 56.5,108.5 59.5,108.5 62.5,108.5C 67.5,109.833 72.5,109.833 77.5,108.5C 83.7889,109.372 90.1222,109.705 96.5,109.5C 96.5,109.833 96.5,110.167 96.5,110.5C 91.8333,110.5 87.1667,110.5 82.5,110.5C 73.1667,110.5 63.8333,110.5 54.5,110.5C 54.2155,112.415 54.5489,114.081 55.5,115.5C 55.5,116.167 55.1667,116.5 54.5,116.5C 53.8333,116.5 53.5,116.167 53.5,115.5C 51.3926,114.532 49.0593,114.198 46.5,114.5C 46.5,114.167 46.5,113.833 46.5,113.5C 48.8333,113.5 51.1667,113.5 53.5,113.5C 53.5,111.833 53.5,110.167 53.5,108.5 Z"/></g>
<g><path style="opacity:1" fill="#9a8a28" d="M 96.5,107.5 C 102.167,107.5 107.833,107.5 113.5,107.5C 113.5,108.5 113.5,109.5 113.5,110.5C 112.662,110.842 112.328,111.508 112.5,112.5C 113.043,112.56 113.376,112.893 113.5,113.5C 110.694,114.168 108.028,114.834 105.5,115.5C 105.5,116.167 105.167,116.5 104.5,116.5C 100.833,116.5 97.1667,116.5 93.5,116.5C 93.5,114.833 93.5,113.167 93.5,111.5C 95.5,111.5 97.5,111.5 99.5,111.5C 99.5,112.833 99.5,114.167 99.5,115.5C 101.167,115.5 102.833,115.5 104.5,115.5C 104.5,113.833 104.5,112.167 104.5,110.5C 101.833,110.5 99.1667,110.5 96.5,110.5C 96.5,110.167 96.5,109.833 96.5,109.5C 96.5,109.167 96.5,108.833 96.5,108.5C 96.5,108.167 96.5,107.833 96.5,107.5 Z"/></g>
<g><path style="opacity:0.761" fill="#94c9e0" d="M 141.5,104.5 C 141.833,104.5 142.167,104.5 142.5,104.5C 142.62,106.199 142.954,107.865 143.5,109.5C 143.332,111.171 142.665,112.504 141.5,113.5C 141.5,110.5 141.5,107.5 141.5,104.5 Z"/></g>
<g><path style="opacity:0.522" fill="#a39648" d="M 62.5,107.5 C 62.5,107.833 62.5,108.167 62.5,108.5C 59.5,108.5 56.5,108.5 53.5,108.5C 51.1432,108.337 48.8098,108.503 46.5,109C 48.9312,110.432 48.9312,111.932 46.5,113.5C 46.5,113.833 46.5,114.167 46.5,114.5C 45.5084,114.672 44.8417,114.338 44.5,113.5C 46.8362,111.927 46.8362,110.594 44.5,109.5C 50.0738,107.547 56.0738,106.88 62.5,107.5 Z"/></g>
<g><path style="opacity:1" fill="#d6ca3a" d="M 82.5,110.5 C 82.5,110.833 82.5,111.167 82.5,111.5C 81.1667,111.5 79.8333,111.5 78.5,111.5C 78.5,112.5 78.5,113.5 78.5,114.5C 78.1667,115.833 77.8333,115.833 77.5,114.5C 77.5,113.5 77.5,112.5 77.5,111.5C 74.5,111.5 71.5,111.5 68.5,111.5C 68.5,112.5 68.5,113.5 68.5,114.5C 67.8333,115.833 67.1667,115.833 66.5,114.5C 67.404,113.791 67.7373,112.791 67.5,111.5C 63.8333,111.5 60.1667,111.5 56.5,111.5C 56.5,112.833 56.5,114.167 56.5,115.5C 56.1667,115.5 55.8333,115.5 55.5,115.5C 54.5489,114.081 54.2155,112.415 54.5,110.5C 63.8333,110.5 73.1667,110.5 82.5,110.5 Z"/></g>
<g><path style="opacity:1" fill="#e9d02c" d="M 112.5,112.5 C 110.393,113.468 108.059,113.802 105.5,113.5C 105.714,111.856 105.38,110.356 104.5,109C 107.167,108.333 109.833,108.333 112.5,109C 111.209,110.292 111.209,111.458 112.5,112.5 Z"/></g>
<g><path style="opacity:1" fill="#4291bc" d="M 122.5,115.5 C 121.833,116.833 121.167,116.833 120.5,115.5C 120.176,111.445 120.509,107.445 121.5,103.5C 122.37,105.407 123.37,107.24 124.5,109C 124.389,110.722 123.889,110.888 123,109.5C 122.505,111.473 122.338,113.473 122.5,115.5 Z"/></g>
<g><path style="opacity:0.329" fill="#9ad2ea" d="M 143.5,104.5 C 143.167,104.5 142.833,104.5 142.5,104.5C 142.75,103.078 143.583,102.078 145,101.5C 147.077,102.378 149.41,102.378 152,101.5C 155.364,104.002 154.864,105.335 150.5,105.5C 150.665,108.85 150.498,112.183 150,115.5C 149,116.833 148,116.833 147,115.5C 146.667,112.5 146.333,109.5 146,106.5C 145.005,105.934 144.172,105.267 143.5,104.5 Z"/></g>
<g><path style="opacity:1" fill="#2484b9" d="M 143.5,104.5 C 147.919,103.082 149.919,103.082 149.5,104.5C 148.206,117.724 147.54,117.724 147.5,104.5C 146.167,104.5 144.833,104.5 143.5,104.5 Z"/></g>
<g><path style="opacity:0.135" fill="#b8e7f7" d="M 180.5,109.5 C 180.167,109.5 179.833,109.5 179.5,109.5C 179.5,108.833 179.5,108.167 179.5,107.5C 179.67,106.178 179.337,105.011 178.5,104C 176.19,103.503 173.857,103.337 171.5,103.5C 171.5,107.167 171.5,110.833 171.5,114.5C 171.5,114.833 171.5,115.167 171.5,115.5C 170.189,111.317 170.189,106.984 171.5,102.5C 178.073,100.447 181.073,102.78 180.5,109.5 Z M 176.5,105.5 C 175.624,105.369 174.957,105.702 174.5,106.5C 175.694,107.67 176.361,107.337 176.5,105.5 Z"/></g>
<g><path style="opacity:0.4" fill="#69c5eb" d="M 176.5,105.5 C 177.222,106.551 178.222,107.218 179.5,107.5C 179.5,108.167 179.5,108.833 179.5,109.5C 177.621,108.659 175.621,108.325 173.5,108.5C 173.5,107.167 173.5,105.833 173.5,104.5C 174.791,104.263 175.791,104.596 176.5,105.5 Z M 176.5,105.5 C 175.624,105.369 174.957,105.702 174.5,106.5C 175.694,107.67 176.361,107.337 176.5,105.5 Z"/></g>
<g><path style="opacity:1" fill="#2f8cbd" d="M 185.5,103.5 C 186.978,103.238 188.311,103.571 189.5,104.5C 188.007,105.141 187.007,106.141 186.5,107.5C 186.281,108.675 186.614,109.675 187.5,110.5C 188.107,110.376 188.44,110.043 188.5,109.5C 188.5,109.167 188.5,108.833 188.5,108.5C 188.5,108.167 188.5,107.833 188.5,107.5C 190.534,108.591 191.868,110.257 192.5,112.5C 192.671,115.797 192.005,116.131 190.5,113.5C 188.604,112.534 186.604,112.201 184.5,112.5C 184.5,113.5 184.5,114.5 184.5,115.5C 183.624,115.631 182.957,115.298 182.5,114.5C 184.117,110.986 185.117,107.319 185.5,103.5 Z"/></g>
<g><path style="opacity:0.063" fill="#bafeff" d="M 186.5,107.5 C 187.167,107.5 187.833,107.5 188.5,107.5C 188.5,107.833 188.5,108.167 188.5,108.5C 187.167,108.833 187.167,109.167 188.5,109.5C 188.44,110.043 188.107,110.376 187.5,110.5C 186.614,109.675 186.281,108.675 186.5,107.5 Z"/></g>
<g><path style="opacity:0.02" fill="#b4ebf7" d="M 243.5,114.5 C 242.442,113.4 241.608,112.066 241,110.5C 240.79,112.058 240.29,113.391 239.5,114.5C 239.416,105.685 240.75,105.685 243.5,114.5 Z"/></g>
<g><path style="opacity:1" fill="#3088b2" d="M 253.5,111.5 C 254.552,113.256 256.219,113.923 258.5,113.5C 258.5,112.5 258.5,111.5 258.5,110.5C 257.5,110.5 256.5,110.5 255.5,110.5C 256.183,108.824 257.517,108.157 259.5,108.5C 260.418,113.495 258.418,115.828 253.5,115.5C 250.851,113.441 250.018,110.775 251,107.5C 251.2,109.32 252.034,110.653 253.5,111.5 Z"/></g>
<g><path style="opacity:1" fill="#c0b923" d="M 82.5,111.5 C 82.5,111.167 82.5,110.833 82.5,110.5C 87.1667,110.5 91.8333,110.5 96.5,110.5C 99.1667,110.5 101.833,110.5 104.5,110.5C 104.5,112.167 104.5,113.833 104.5,115.5C 102.833,115.5 101.167,115.5 99.5,115.5C 99.5,114.167 99.5,112.833 99.5,111.5C 97.5,111.5 95.5,111.5 93.5,111.5C 93.5,113.167 93.5,114.833 93.5,116.5C 92.8333,116.5 92.1667,116.5 91.5,116.5C 91.5,114.833 91.5,113.167 91.5,111.5C 88.5,111.5 85.5,111.5 82.5,111.5 Z"/></g>
<g><path style="opacity:0.102" fill="#abe4f6" d="M 202.5,114.5 C 203.833,114.5 205.167,114.5 206.5,114.5C 206.823,110.774 206.489,107.107 205.5,103.5C 204.682,106.107 204.182,108.774 204,111.5C 203.283,110.956 202.783,110.289 202.5,109.5C 202.5,108.833 202.5,108.167 202.5,107.5C 203.016,105.282 204.016,103.282 205.5,101.5C 206.086,101.709 206.586,102.043 207,102.5C 207.667,106.833 207.667,111.167 207,115.5C 205.085,116.916 203.585,116.582 202.5,114.5 Z"/></g>
<g><path style="opacity:0.125" fill="#beeefb" d="M 249.5,107.5 C 249.5,108.5 249.5,109.5 249.5,110.5C 248.833,112.167 248.167,113.833 247.5,115.5C 247.824,111.445 247.491,107.445 246.5,103.5C 245.682,106.107 245.182,108.774 245,111.5C 243.812,110.437 243.312,109.103 243.5,107.5C 244.451,106.081 244.784,104.415 244.5,102.5C 245.833,102.5 247.167,102.5 248.5,102.5C 248.216,104.415 248.549,106.081 249.5,107.5 Z"/></g>
<g><path style="opacity:0.839" fill="#91cbe2" d="M 253.5,115.5 C 258.418,115.828 260.418,113.495 259.5,108.5C 257.517,108.157 256.183,108.824 255.5,110.5C 254.596,109.791 254.263,108.791 254.5,107.5C 261.676,106.985 263.342,109.818 259.5,116C 257.288,116.789 255.288,116.622 253.5,115.5 Z"/></g>
<g><path style="opacity:0.467" fill="#a8e4fb" d="M 134.5,105.5 C 137.996,103.656 139.663,104.823 139.5,109C 139.663,113.177 137.996,114.344 134.5,112.5C 138.473,111.925 139.473,109.758 137.5,106C 136.552,105.517 135.552,105.351 134.5,105.5 Z"/></g>
<g><path style="opacity:1" fill="#499bc8" d="M 161.5,115.5 C 159.683,113.49 157.683,113.157 155.5,114.5C 153.824,113.817 153.157,112.483 153.5,110.5C 153.971,108.421 154.637,106.421 155.5,104.5C 156.858,103.374 158.192,103.374 159.5,104.5C 157.022,105.722 156.022,107.722 156.5,110.5C 158.124,110.64 159.29,109.973 160,108.5C 161.815,110.1 162.982,112.1 163.5,114.5C 163.043,115.298 162.376,115.631 161.5,115.5 Z"/></g>
<g><path style="opacity:0.98" fill="#8ecce5" d="M 185.5,103.5 C 185.117,107.319 184.117,110.986 182.5,114.5C 182.957,115.298 183.624,115.631 184.5,115.5C 183.791,116.404 182.791,116.737 181.5,116.5C 181.737,115.209 181.404,114.209 180.5,113.5C 180.5,112.5 180.5,111.5 180.5,110.5C 181.117,110.611 181.617,110.944 182,111.5C 182.942,108.626 184.109,105.96 185.5,103.5 Z"/></g>
<g><path style="opacity:0.225" fill="#a9e0f5" d="M 192.5,110.5 C 193.234,111.878 193.901,113.378 194.5,115C 193.407,116.365 192.074,116.699 190.5,116C 188.663,112.898 186.663,112.731 184.5,115.5C 184.5,114.5 184.5,113.5 184.5,112.5C 186.604,112.201 188.604,112.534 190.5,113.5C 192.005,116.131 192.671,115.797 192.5,112.5C 192.5,111.833 192.5,111.167 192.5,110.5 Z"/></g>
<g><path style="opacity:0.125" fill="#a6e2f9" d="M 255.5,110.5 C 256.5,110.5 257.5,110.5 258.5,110.5C 258.5,111.5 258.5,112.5 258.5,113.5C 256.219,113.923 254.552,113.256 253.5,111.5C 254.738,112.412 256.072,112.579 257.5,112C 256.584,111.722 255.918,111.222 255.5,110.5 Z"/></g>
<g><path style="opacity:0.943" fill="#8a7f01" d="M 66.5,114.5 C 64.2075,114.756 62.0408,114.423 60,113.5C 59.1841,114.823 58.0174,115.489 56.5,115.5C 56.5,114.167 56.5,112.833 56.5,111.5C 60.1667,111.5 63.8333,111.5 67.5,111.5C 67.7373,112.791 67.404,113.791 66.5,114.5 Z"/></g>
<g><path style="opacity:0.973" fill="#867b02" d="M 77.5,114.5 C 74.5,114.5 71.5,114.5 68.5,114.5C 68.5,113.5 68.5,112.5 68.5,111.5C 71.5,111.5 74.5,111.5 77.5,111.5C 77.5,112.5 77.5,113.5 77.5,114.5 Z"/></g>
<g><path style="opacity:1" fill="#398fc0" d="M 132.5,103.5 C 135.167,103.5 137.833,103.5 140.5,103.5C 141.167,103.5 141.5,103.833 141.5,104.5C 141.5,107.5 141.5,110.5 141.5,113.5C 141.5,114.167 141.167,114.5 140.5,114.5C 138.236,115.219 135.903,115.552 133.5,115.5C 131.5,115.5 130.5,114.5 130.5,112.5C 130.674,106.426 131.674,106.093 133.5,111.5C 134.167,111.5 134.5,111.833 134.5,112.5C 137.996,114.344 139.663,113.177 139.5,109C 139.663,104.823 137.996,103.656 134.5,105.5C 132.797,106.66 132.131,105.993 132.5,103.5 Z"/></g>
<g><path style="opacity:0.824" fill="#a1cee4" d="M 153.5,110.5 C 153.157,112.483 153.824,113.817 155.5,114.5C 154.923,116.652 153.756,116.985 152,115.5C 151.797,113.609 152.297,111.943 153.5,110.5 Z"/></g>
<g><path style="opacity:0.398" fill="#c4b985" d="M 44.5,113.5 C 44.8417,114.338 45.5084,114.672 46.5,114.5C 49.0593,114.198 51.3926,114.532 53.5,115.5C 50.1016,115.82 46.7683,115.487 43.5,114.5C 43.6236,113.893 43.9569,113.56 44.5,113.5 Z"/></g>
<g><path style="opacity:1" fill="#938b0f" d="M 82.5,111.5 C 85.5,111.5 88.5,111.5 91.5,111.5C 91.5,113.167 91.5,114.833 91.5,116.5C 87.2416,115.592 82.9083,114.925 78.5,114.5C 78.5,113.5 78.5,112.5 78.5,111.5C 79.8333,111.5 81.1667,111.5 82.5,111.5 Z"/></g>
<g><path style="opacity:0.482" fill="#bbb88e" d="M 113.5,110.5 C 114.476,111.815 115.476,113.148 116.5,114.5C 112.893,115.489 109.226,115.823 105.5,115.5C 108.028,114.834 110.694,114.168 113.5,113.5C 113.376,112.893 113.043,112.56 112.5,112.5C 112.328,111.508 112.662,110.842 113.5,110.5 Z"/></g>
<g><path style="opacity:0.816" fill="#7ebfe0" d="M 176.5,110.5 C 177.497,110.47 178.164,110.97 178.5,112C 175.61,113.892 175.944,114.725 179.5,114.5C 178.508,116.026 177.008,116.693 175,116.5C 173.615,116.486 172.449,116.152 171.5,115.5C 171.5,115.167 171.5,114.833 171.5,114.5C 173.256,113.448 173.923,111.781 173.5,109.5C 174.791,109.263 175.791,109.596 176.5,110.5 Z M 176.5,110.5 C 175.624,110.369 174.957,110.702 174.5,111.5C 176.808,112.873 177.475,112.54 176.5,110.5 Z"/></g>
<g><path style="opacity:1" fill="#cdc75e" d="M 66.5,114.5 C 67.1667,115.833 67.8333,115.833 68.5,114.5C 71.5,114.5 74.5,114.5 77.5,114.5C 77.8333,115.833 78.1667,115.833 78.5,114.5C 82.9083,114.925 87.2416,115.592 91.5,116.5C 92.1667,116.5 92.8333,116.5 93.5,116.5C 97.1667,116.5 100.833,116.5 104.5,116.5C 87.8333,117.833 71.1667,117.833 54.5,116.5C 55.1667,116.5 55.5,116.167 55.5,115.5C 55.8333,115.5 56.1667,115.5 56.5,115.5C 58.0174,115.489 59.1841,114.823 60,113.5C 62.0408,114.423 64.2075,114.756 66.5,114.5 Z"/></g>
<g><path style="opacity:0.106" fill="#c1ebfa" d="M 140.5,114.5 C 139.688,115.993 138.355,116.66 136.5,116.5C 135.274,116.48 134.274,116.147 133.5,115.5C 135.903,115.552 138.236,115.219 140.5,114.5 Z"/></g>
</svg>
